<svg width="260" height="59" viewBox="0 0 260 59" fill="none" xmlns="http://www.w3.org/2000/svg">
<g clip-path="url(#clip0_103_2)">
<path d="M35.2191 13.5334L35.18 13.5099L35.0896 13.4817C35.126 13.5131 35.1715 13.5313 35.2191 13.5334Z" fill="#0D0C22"/>
<path d="M35.2357 13.5269C35.2302 13.5262 35.2247 13.5248 35.2195 13.5229C35.2192 13.5266 35.2192 13.5303 35.2195 13.534C35.2255 13.5332 35.2311 13.5307 35.2357 13.5269Z" fill="#0D0C22"/>
<path d="M35.2192 13.5344H35.226V13.5302L35.2192 13.5344Z" name="liquid" fill="#0D0C22"/>
<path d="M35.7534 17.6822L35.8193 17.6438L35.8438 17.6297L35.866 17.6055C35.8243 17.6239 35.7861 17.6499 35.7534 17.6822Z" fill="#0D0C22"/>
<path d="M35.3331 13.6242L35.2687 13.5616L35.225 13.5374C35.2485 13.5797 35.2873 13.6108 35.3331 13.6242Z" fill="#0D0C22"/>
<path d="M19.1438 53.9565C19.0924 53.9792 19.0474 54.0148 19.0129 54.0598L19.0535 54.0332C19.081 54.0074 19.1201 53.9769 19.1438 53.9565Z" fill="#0D0C22"/>
<path d="M28.5447 52.0668C28.5447 52.0072 28.5164 52.0182 28.5234 52.2296C28.5234 52.2123 28.5302 52.1951 28.5332 52.1787C28.5371 52.1411 28.5402 52.1043 28.5447 52.0668Z" fill="#0D0C22"/>
<path d="M27.5697 53.9565C27.5183 53.9792 27.4733 54.0148 27.4387 54.0598L27.4793 54.0332C27.5069 54.0074 27.5459 53.9769 27.5697 53.9565Z" fill="#0D0C22"/>
<path d="M12.5233 54.4058C12.4842 54.3712 12.4365 54.3484 12.3854 54.3401C12.4267 54.3605 12.4681 54.3808 12.4957 54.3965L12.5233 54.4058Z" fill="#0D0C22"/>
<path d="M11.0334 52.9483C11.0274 52.8866 11.0089 52.8269 10.9791 52.7729C11.0002 52.8292 11.0178 52.8866 11.0319 52.9451L11.0334 52.9483Z" fill="#0D0C22"/>
<path d="M21.0405 26.8757C18.9953 27.7703 16.6742 28.7847 13.6662 28.7847C12.4078 28.7821 11.1555 28.6057 9.94336 28.2603L12.0239 50.0853C12.0974 50.9975 12.5042 51.8481 13.1632 52.4681C13.8222 53.0881 14.6854 53.4322 15.5812 53.432C15.5812 53.432 18.5311 53.5886 19.5154 53.5886C20.5748 53.5886 23.7514 53.432 23.7514 53.432C24.6471 53.432 25.5101 53.0878 26.1689 52.4678C26.8278 51.8478 27.2343 50.9974 27.308 50.0853L29.5363 25.9678C28.5405 25.6203 27.5355 25.3894 26.4026 25.3894C24.4431 25.3886 22.8643 26.0782 21.0405 26.8757Z" fill="#FFDD00"/>
<path d="M3.5031 17.5642L3.53827 17.5979L3.56121 17.6119C3.54354 17.594 3.52406 17.5779 3.5031 17.5642Z" fill="#0D0C22"/>
<path d="M39.1571 15.5499L38.8438 13.9352C38.5627 12.4865 37.9246 11.1176 36.4692 10.5939C36.0027 10.4265 35.4734 10.3545 35.1157 10.0077C34.7579 9.66104 34.6522 9.12252 34.5695 8.62319C34.4163 7.70667 34.2723 6.78938 34.1153 5.8744C33.9797 5.0878 33.8724 4.20416 33.5193 3.48253C33.0597 2.51357 32.106 1.94691 31.1577 1.57201C30.6718 1.38666 30.1758 1.22987 29.6724 1.1024C27.3032 0.463732 24.8121 0.228929 22.3747 0.0950905C19.449 -0.0698584 16.5156 -0.0201617 13.597 0.243799C11.4246 0.445731 9.13655 0.68993 7.07214 1.45774C6.31764 1.73872 5.54013 2.07605 4.96639 2.67168C4.26243 3.40348 4.03263 4.53523 4.54662 5.44784C4.912 6.0959 5.53093 6.55373 6.1874 6.85667C7.04245 7.24697 7.93546 7.54392 8.8516 7.74267C11.4024 8.31872 14.0444 8.54494 16.6503 8.64116C19.5386 8.76025 22.4316 8.66378 25.3062 8.35237C26.017 8.27252 26.7266 8.17681 27.4349 8.0651C28.2691 7.93441 28.8046 6.8199 28.5587 6.04346C28.2645 5.1152 27.474 4.75517 26.5801 4.89527C26.4483 4.9164 26.3173 4.93597 26.1855 4.95553L26.0906 4.96962C25.7877 5.00876 25.4849 5.04528 25.1821 5.07919C24.5565 5.14807 23.9294 5.20443 23.3008 5.24826C21.8928 5.34844 20.4811 5.39461 19.0701 5.39697C17.6836 5.39697 16.2964 5.35704 14.913 5.26391C14.2818 5.22165 13.6522 5.1679 13.024 5.10268C12.7383 5.07215 12.4534 5.04006 12.1684 5.00406L11.8972 4.96884L11.8383 4.96023L11.5571 4.91875C10.9826 4.83031 10.4081 4.72856 9.83971 4.60568C9.7824 4.59267 9.73107 4.56007 9.69428 4.51325C9.65754 4.46643 9.63746 4.4082 9.63746 4.34818C9.63746 4.28814 9.65754 4.22991 9.69428 4.1831C9.73107 4.13627 9.7824 4.10367 9.83971 4.09067H9.85044C10.343 3.98344 10.8394 3.89187 11.3373 3.81204C11.5032 3.78542 11.6697 3.75934 11.8367 3.73377H11.8413C12.1531 3.71264 12.4663 3.6555 12.7766 3.61793C15.4758 3.33106 18.191 3.23326 20.9032 3.32521C22.2199 3.36435 23.536 3.44339 24.8466 3.57958C25.1284 3.60933 25.4088 3.64063 25.6892 3.67585C25.7964 3.68916 25.9044 3.70481 26.0124 3.71811L26.23 3.7502C26.8643 3.84674 27.4951 3.96388 28.1228 4.10163C29.0527 4.30826 30.2469 4.37556 30.6605 5.41653C30.7923 5.74682 30.8521 6.1139 30.9248 6.46064L31.0175 6.90287C31.02 6.91077 31.0218 6.91886 31.0229 6.92708C31.242 7.97067 31.4613 9.01425 31.6809 10.0578C31.697 10.1349 31.6974 10.2146 31.682 10.2918C31.6666 10.3691 31.6359 10.4423 31.5916 10.5068C31.5473 10.5714 31.4905 10.6259 31.4246 10.667C31.3588 10.7081 31.2854 10.735 31.209 10.7458H31.2029L31.0688 10.7646L30.9363 10.7826C30.5165 10.8384 30.0963 10.8906 29.6755 10.9391C28.8467 11.0357 28.0166 11.1191 27.1852 11.1896C25.5332 11.3299 23.8778 11.422 22.2192 11.4658C21.374 11.4889 20.5291 11.4995 19.6845 11.498C16.3224 11.4952 12.9633 11.2956 9.62368 10.9C9.26215 10.8562 8.90062 10.8092 8.53903 10.7615C8.81942 10.7982 8.33528 10.7333 8.23724 10.7192C8.00743 10.6863 7.77761 10.6521 7.54786 10.6167C6.77646 10.4985 6.00969 10.3529 5.23985 10.2253C4.30915 10.0688 3.41905 10.147 2.57721 10.6167C1.88619 11.003 1.3269 11.5955 0.973962 12.3151C0.610872 13.0821 0.502866 13.9172 0.340472 14.7414C0.178078 15.5656 -0.0747046 16.4523 0.0210462 17.2984C0.227102 19.1244 1.47646 20.6084 3.27351 20.9402C4.96409 21.2533 6.66383 21.5069 8.36821 21.7229C15.0633 22.5607 21.8272 22.6609 28.5433 22.0219C29.0903 21.9697 29.6364 21.9128 30.1818 21.8513C30.3521 21.8321 30.5245 21.8522 30.6863 21.91C30.8481 21.9677 30.9952 22.0617 31.1168 22.1851C31.2384 22.3084 31.3315 22.458 31.3892 22.6229C31.4469 22.7878 31.4678 22.9638 31.4503 23.138L31.2803 24.827C30.9376 28.24 30.5949 31.6528 30.2523 35.0652C29.8948 38.6489 29.535 42.2322 29.1729 45.8153C29.0709 46.8245 28.9687 47.8334 28.8665 48.842C28.7685 49.8352 28.7547 50.8597 28.5701 51.8412C28.2791 53.3846 27.2564 54.3325 25.7643 54.6792C24.3972 54.9971 23.0007 55.164 21.5987 55.177C20.0444 55.1856 18.491 55.1151 16.9368 55.1237C15.2776 55.1332 13.2454 54.9766 11.9646 53.715C10.8394 52.6066 10.6839 50.8715 10.5307 49.3711C10.3264 47.3846 10.1239 45.3984 9.92322 43.4125L8.79722 32.3697L8.06873 25.2246C8.05644 25.1064 8.04422 24.9898 8.03275 24.8708C7.94537 24.0185 7.35478 23.1842 6.4241 23.2272C5.62746 23.2632 4.72203 23.9551 4.81549 24.8708L5.35552 30.168L6.47237 41.1256C6.7905 44.238 7.10787 47.351 7.4245 50.4645C7.4858 51.0609 7.54324 51.6588 7.6076 52.2552C7.95766 55.5143 10.3936 57.2707 13.4101 57.7653C15.1719 58.0549 16.9766 58.1144 18.7645 58.1441C21.0564 58.1817 23.3712 58.2717 25.6256 57.8475C28.9661 57.2214 31.4725 54.9422 31.8303 51.4068C31.9324 50.3862 32.0345 49.3653 32.1367 48.3442C32.4762 44.9672 32.8153 41.5899 33.1539 38.2124L34.2616 27.1766L34.7694 22.1189C34.7947 21.8682 34.8984 21.6323 35.065 21.4464C35.2317 21.2605 35.4525 21.1343 35.6948 21.0865C36.65 20.8964 37.563 20.5715 38.2425 19.8288C39.3241 18.6462 39.5393 17.1043 39.1571 15.5499ZM3.22449 16.6409C3.23904 16.6339 3.21223 16.7615 3.20074 16.821C3.19844 16.731 3.20304 16.6511 3.22449 16.6409ZM3.31718 17.3736C3.32484 17.3681 3.34781 17.3994 3.37156 17.4369C3.33556 17.4025 3.31258 17.3767 3.31641 17.3736H3.31718ZM3.40833 17.4964C3.45889 17.5896 3.44127 17.5536 3.40833 17.4964ZM3.59141 17.6483H3.596C3.596 17.6538 3.60443 17.6592 3.60749 17.6647C3.60241 17.6587 3.59677 17.6532 3.59064 17.6483H3.59141ZM35.6503 17.4213C35.3072 17.7547 34.7901 17.9097 34.2792 17.9871C28.5494 18.8559 22.7362 19.2958 16.9437 19.1017C12.7981 18.9569 8.69606 18.4865 4.59181 17.894C4.18965 17.8361 3.7538 17.7609 3.47727 17.4581C2.95639 16.8867 3.21223 15.7361 3.34781 15.0458C3.47191 14.4135 3.70937 13.5705 4.4455 13.4805C5.59451 13.3427 6.92888 13.8382 8.06568 14.0143C9.43428 14.2277 10.8079 14.3985 12.1868 14.527C18.0712 15.0748 24.0545 14.9895 29.9129 14.188C30.9807 14.0414 32.0447 13.8711 33.1049 13.677C34.0494 13.5039 35.0965 13.1792 35.6672 14.1786C36.0586 14.8596 36.1107 15.7706 36.0502 16.54C36.0315 16.8752 35.8882 17.1905 35.6496 17.4213H35.6503Z" fill="#0D0C22"/>
<path fill-rule="evenodd" clip-rule="evenodd" d="M70.4033 33.6875C70.069 34.34 69.6088 34.9081 69.0238 35.3903C68.4382 35.8728 67.7553 36.2657 66.9745 36.5682C66.1943 36.8713 65.4085 37.0747 64.6189 37.1785C63.8288 37.2825 63.0617 37.2736 62.3187 37.15C61.5752 37.0272 60.9428 36.7766 60.4229 36.3978L61.0086 30.1821C61.5473 29.993 62.2253 29.7989 63.0436 29.6002C63.8612 29.4018 64.7019 29.2596 65.5663 29.1746C66.4307 29.0892 67.2483 29.0993 68.0203 29.203C68.7906 29.307 69.3999 29.5577 69.8458 29.9552C70.0871 30.1821 70.2923 30.428 70.4594 30.693C70.6266 30.958 70.7289 31.2324 70.7663 31.5162C70.8586 32.3109 70.7382 33.0346 70.4033 33.6875ZM61.9002 20.4469C62.2907 20.201 62.7598 19.9831 63.308 19.7937C63.8562 19.605 64.4188 19.4721 64.995 19.3965C65.5706 19.3213 66.1332 19.3112 66.682 19.368C67.2295 19.4249 67.7135 19.5809 68.1313 19.8361C68.5498 20.0918 68.861 20.4609 69.065 20.9431C69.2695 21.426 69.3256 22.0363 69.2327 22.7741C69.1585 23.3606 68.9302 23.8575 68.5498 24.2641C68.1688 24.6714 67.7035 25.0116 67.156 25.286C66.6071 25.5608 66.0265 25.7783 65.4135 25.9385C64.7998 26.0998 64.2092 26.2183 63.6429 26.2935C63.076 26.3695 62.5834 26.417 62.1655 26.4354C61.7471 26.4545 61.4726 26.4639 61.3428 26.4639L61.9002 20.4469ZM73.4143 29.6711C73.1168 29.0093 72.7177 28.4274 72.2156 27.9254C71.7142 27.4242 71.1186 27.0602 70.4314 26.8329C70.7289 26.587 71.0214 26.1992 71.3095 25.6692C71.5976 25.1398 71.8439 24.5623 72.0485 23.9379C72.2524 23.3131 72.3921 22.6844 72.4663 22.0503C72.5406 21.4166 72.5125 20.8725 72.3834 20.4181C72.0666 19.2831 71.5695 18.3937 70.891 17.7502C70.2125 17.1071 69.4229 16.6624 68.5218 16.4161C67.62 16.1709 66.6259 16.1183 65.5388 16.2602C64.4512 16.4021 63.3405 16.6811 62.2072 17.0974C62.2072 17.003 62.2165 16.9036 62.2352 16.7996C62.2532 16.6959 62.2627 16.5868 62.2627 16.473C62.2627 16.1892 62.1234 15.9437 61.8447 15.7352C61.566 15.527 61.2452 15.4043 60.883 15.3661C60.5205 15.3287 60.1671 15.4086 59.8234 15.6074C59.4793 15.8061 59.2423 16.1709 59.1125 16.6999C58.9636 18.403 58.815 20.1725 58.6665 22.0075C58.5176 23.8431 58.3598 25.6976 58.1925 27.5711C58.0252 29.4442 57.858 31.3033 57.6906 33.148C57.5234 34.9931 57.356 36.7669 57.1888 38.4697C57.2447 38.9807 57.384 39.3782 57.6072 39.6619C57.83 39.9461 58.0903 40.1164 58.3877 40.1729C58.6848 40.2298 58.9965 40.1772 59.3215 40.0166C59.6465 39.8564 59.9302 39.5766 60.1721 39.1794C60.9152 39.5957 61.7517 39.8654 62.6813 39.9885C63.6105 40.1113 64.5535 40.1113 65.5108 39.9885C66.4674 39.8654 67.411 39.6338 68.3403 39.2929C69.2695 38.9526 70.1152 38.5266 70.8773 38.016C71.6394 37.5051 72.2805 36.9228 72.8012 36.2703C73.3214 35.6172 73.665 34.9125 73.8328 34.1559C73.9999 33.38 74.0461 32.6044 73.9718 31.8283C73.8976 31.0528 73.7118 30.3341 73.4143 29.6711Z" fill="#0D0C23"/>
<path fill-rule="evenodd" clip-rule="evenodd" d="M100.612 44.6569C100.509 45.2813 100.365 45.9388 100.18 46.6298C99.993 47.32 99.7748 47.9495 99.5241 48.5173C99.2733 49.0848 98.9946 49.5432 98.6884 49.8936C98.3809 50.2436 98.051 50.3905 97.698 50.3339C97.4192 50.2954 97.2427 50.1157 97.1685 49.7946C97.0943 49.4723 97.0943 49.0751 97.1685 48.6023C97.2427 48.1292 97.3868 47.5944 97.6007 46.9985C97.814 46.4026 98.0747 45.811 98.3809 45.2247C98.6884 44.6378 99.0364 44.0753 99.4268 43.5359C99.8172 42.9969 100.226 42.5472 100.653 42.1878C100.746 42.3013 100.788 42.5849 100.779 43.0394C100.769 43.4934 100.713 44.0328 100.612 44.6569ZM110.063 32.3388C109.812 32.0551 109.505 31.8945 109.143 31.8563C108.78 31.8185 108.413 32.0266 108.041 32.4807C107.799 32.9347 107.493 33.3701 107.121 33.7863C106.749 34.2029 106.364 34.5811 105.964 34.9217C105.565 35.262 105.184 35.5558 104.821 35.8014C104.459 36.0476 104.175 36.2273 103.971 36.3408C103.896 35.7355 103.855 35.0826 103.845 34.3823C103.835 33.6823 103.85 32.9729 103.887 32.2539C103.943 31.2319 104.059 30.201 104.236 29.16C104.412 28.1194 104.668 27.0974 105.002 26.0943C105.002 25.565 104.881 25.1343 104.64 24.803C104.398 24.4721 104.105 24.2636 103.762 24.1786C103.418 24.0936 103.065 24.1408 102.702 24.3205C102.34 24.5006 102.029 24.8271 101.769 25.2996C101.545 25.9243 101.29 26.6243 101.002 27.3999C100.713 28.1759 100.388 28.9659 100.026 29.77C99.6638 30.5748 99.259 31.3551 98.8131 32.1116C98.3672 32.8689 97.8795 33.5408 97.3494 34.127C96.8199 34.7136 96.2437 35.1727 95.6213 35.5036C94.9982 35.8349 94.3253 35.9814 93.6 35.9436C93.2651 35.8489 93.0237 35.5936 92.8747 35.177C92.7263 34.7611 92.6377 34.2404 92.6103 33.6161C92.5822 32.9916 92.6103 32.3057 92.6938 31.5581C92.7774 30.811 92.889 30.0681 93.0281 29.3303C93.1678 28.5922 93.3212 27.8922 93.4884 27.23C93.6555 26.5678 93.8133 26.0093 93.9623 25.5552C94.1856 25.0068 94.1856 24.5473 93.9623 24.1786C93.7391 23.8095 93.4329 23.564 93.0425 23.4405C92.6521 23.3177 92.2429 23.3227 91.8157 23.4549C91.3879 23.5873 91.0811 23.8805 90.8958 24.3346C90.5797 25.1109 90.2915 25.9808 90.0315 26.9458C89.7708 27.9109 89.5619 28.9094 89.4041 29.9403C89.2457 30.972 89.1571 31.9939 89.139 33.006C89.1378 33.0719 89.1409 33.1346 89.1409 33.2001C88.7355 34.3002 88.3489 35.1316 87.9822 35.6879C87.5082 36.4074 86.9737 36.7196 86.3794 36.6245C86.1187 36.5111 85.9472 36.2465 85.8636 35.8298C85.7794 35.4139 85.7514 34.903 85.7794 34.2969C85.8081 33.692 85.8773 33.006 85.9883 32.2395C86.1006 31.4732 86.2397 30.6785 86.4068 29.8554C86.5746 29.0318 86.7511 28.2047 86.9363 27.3718C87.1221 26.5394 87.2893 25.754 87.439 25.0158C87.4202 24.3536 87.2294 23.8477 86.8671 23.4974C86.5047 23.1477 85.9977 23.0105 85.3479 23.0858C84.9019 23.2752 84.5714 23.5215 84.3575 23.824C84.1436 24.1264 83.9721 24.5146 83.8424 24.9874C83.7675 25.2337 83.6559 25.7256 83.5075 26.4637C83.3584 27.2012 83.1682 28.0484 82.9362 29.0038C82.7036 29.9597 82.4298 30.9576 82.1136 31.9982C81.7974 33.0388 81.4444 33.9808 81.0546 34.8223C80.6636 35.6642 80.2364 36.3408 79.7718 36.8518C79.3072 37.3623 78.8051 37.5708 78.2663 37.4761C77.9688 37.4192 77.7786 37.107 77.695 36.5395C77.6115 35.9717 77.5971 35.2721 77.6533 34.4392C77.7088 33.6067 77.8204 32.6935 77.9875 31.7004C78.1547 30.7069 78.3262 29.7657 78.5033 28.8759C78.6798 27.9869 78.8426 27.2012 78.9916 26.5202C79.14 25.839 79.2423 25.3849 79.2978 25.158C79.2978 24.6093 79.1768 24.1696 78.9355 23.838C78.6935 23.5074 78.401 23.2989 78.0574 23.2136C77.7131 23.1286 77.3601 23.1758 76.9978 23.3555C76.6355 23.5355 76.3243 23.8621 76.0636 24.3346C75.9706 24.8455 75.8496 25.4371 75.7012 26.1087C75.5522 26.7802 75.4087 27.4709 75.2697 28.1806C75.13 28.8903 74.9996 29.5856 74.8793 30.2669C74.7583 30.9482 74.6697 31.5441 74.6142 32.0551C74.5768 32.4522 74.535 32.9398 74.4888 33.5167C74.4421 34.0942 74.419 34.7042 74.419 35.3473C74.419 35.9911 74.4651 36.6296 74.5587 37.2633C74.651 37.8974 74.8188 38.4793 75.0601 39.0086C75.3015 39.5387 75.6407 39.9737 76.0779 40.3143C76.5145 40.6549 77.0676 40.844 77.7368 40.8822C78.4241 40.9196 79.0234 40.8681 79.5348 40.7258C80.0462 40.584 80.5102 40.3615 80.9287 40.0587C81.3471 39.7565 81.7276 39.3968 82.0718 38.9802C82.4154 38.5643 82.7547 38.1102 83.0896 37.618C83.4052 38.3375 83.8143 38.8952 84.3163 39.2927C84.8177 39.6899 85.3478 39.9268 85.9054 40.0021C86.4623 40.0773 87.0298 39.9978 87.6061 39.7608C88.1817 39.5246 88.7018 39.1224 89.1671 38.5546C89.4733 38.2064 89.7621 37.8107 90.0327 37.3731C90.1475 37.578 90.2697 37.7757 90.4075 37.9582C90.8634 38.5643 91.4815 38.9802 92.2623 39.2074C93.098 39.4346 93.9156 39.4728 94.7151 39.3212C95.514 39.1699 96.2761 38.8952 97.0008 38.498C97.7261 38.1005 98.3996 37.6231 99.0226 37.0645C99.645 36.5064 100.188 35.9249 100.653 35.3189C100.634 35.7542 100.625 36.1661 100.625 36.5536C100.625 36.9417 100.616 37.3623 100.597 37.8168C99.6681 38.4793 98.79 39.274 97.9631 40.2009C97.1355 41.1277 96.4108 42.1165 95.7884 43.1669C95.166 44.2169 94.6777 45.2813 94.3253 46.3597C93.9717 47.4389 93.7996 48.446 93.8089 49.383C93.8183 50.3195 94.0366 51.1377 94.4638 51.8376C94.8916 52.538 95.5882 53.0393 96.5549 53.3421C97.5589 53.664 98.4414 53.673 99.2035 53.3706C99.9656 53.0677 100.63 52.5661 101.197 51.8661C101.764 51.1661 102.228 50.3195 102.591 49.3261C102.954 48.3326 103.242 47.2967 103.455 46.2182C103.669 45.1398 103.804 44.0793 103.859 43.0394C103.915 41.9984 103.915 41.0708 103.859 40.2574C105.457 39.5765 106.768 38.7155 107.79 37.6746C108.812 36.6346 109.658 35.5367 110.327 34.3823C110.531 34.0986 110.601 33.7579 110.536 33.3607C110.471 32.9632 110.313 32.6226 110.063 32.3388Z" fill="#0D0C23"/>
<path fill-rule="evenodd" clip-rule="evenodd" d="M145.231 30.5226C145.286 30.0876 145.37 29.6285 145.482 29.146C145.593 28.6635 145.732 28.195 145.9 27.741C146.066 27.2869 146.262 26.8944 146.485 26.5631C146.708 26.2322 146.945 25.9957 147.196 25.8534C147.447 25.7119 147.702 25.7259 147.963 25.8959C148.242 26.0666 148.413 26.4259 148.479 26.9743C148.543 27.5239 148.479 28.11 148.284 28.7344C148.088 29.3592 147.74 29.9454 147.238 30.4942C146.736 31.0433 146.058 31.4023 145.203 31.5726C145.165 31.3083 145.175 30.9579 145.231 30.5226ZM154.891 31.686C154.584 31.592 154.291 31.5823 154.012 31.6579C153.734 31.7336 153.557 31.9323 153.483 32.2542C153.333 32.8595 153.097 33.4792 152.771 34.113C152.446 34.7471 152.047 35.3477 151.573 35.9155C151.099 36.4831 150.564 36.9846 149.97 37.4196C149.375 37.8549 148.753 38.1672 148.102 38.3562C147.451 38.5647 146.912 38.5881 146.485 38.4271C146.058 38.2669 145.718 37.9921 145.468 37.6043C145.217 37.2165 145.036 36.7481 144.924 36.1993C144.812 35.6505 144.747 35.0831 144.729 34.4961C145.788 34.5721 146.731 34.3784 147.559 33.9142C148.385 33.4511 149.087 32.8358 149.663 32.0695C150.239 31.3032 150.676 30.4423 150.973 29.4866C151.27 28.5313 151.438 27.5804 151.475 26.634C151.494 25.7447 151.364 24.9928 151.085 24.3778C150.806 23.7631 150.43 23.2846 149.956 22.9443C149.482 22.6037 148.938 22.4049 148.325 22.3484C147.712 22.2915 147.089 22.3768 146.457 22.6037C145.695 22.8687 145.049 23.299 144.52 23.8953C143.99 24.4912 143.548 25.1822 143.195 25.9672C142.842 26.7526 142.563 27.5991 142.359 28.5072C142.154 29.4157 142.006 30.3098 141.913 31.1898C141.829 31.9795 141.785 32.7346 141.769 33.4634C141.729 33.556 141.69 33.6449 141.648 33.7439C141.36 34.4162 141.025 35.0737 140.644 35.7168C140.263 36.3603 139.841 36.8997 139.376 37.3346C138.911 37.77 138.428 37.9212 137.926 37.7887C137.629 37.7135 137.466 37.3627 137.438 36.7387C137.411 36.114 137.443 35.3383 137.536 34.4111C137.629 33.4843 137.736 32.4807 137.857 31.4023C137.977 30.3238 138.038 29.2929 138.038 28.3088C138.038 27.4572 137.88 26.6391 137.564 25.8534C137.247 25.0688 136.815 24.4156 136.268 23.8953C135.719 23.3746 135.083 23.0293 134.358 22.8593C133.633 22.6887 132.853 22.8024 132.016 23.1996C131.179 23.5971 130.515 24.1552 130.023 24.8743C129.53 25.5938 129.079 26.3503 128.67 27.145C128.521 26.5393 128.304 25.9769 128.016 25.4563C127.727 24.9359 127.374 24.4819 126.956 24.0937C126.537 23.7062 126.068 23.4034 125.548 23.1856C125.028 22.9684 124.479 22.8593 123.903 22.8593C123.346 22.8593 122.83 22.9684 122.356 23.1856C121.882 23.4034 121.45 23.6821 121.059 24.0228C120.669 24.3637 120.316 24.7465 120 25.1725C119.684 25.5981 119.405 26.0194 119.164 26.4353C119.126 25.9434 119.084 25.5132 119.038 25.1437C118.992 24.7749 118.908 24.4628 118.787 24.2075C118.666 23.9518 118.495 23.7581 118.272 23.6256C118.048 23.4934 117.733 23.4268 117.324 23.4268C117.119 23.4268 116.915 23.4693 116.711 23.5543C116.505 23.6396 116.324 23.7581 116.167 23.9093C116.008 24.0613 115.888 24.2453 115.804 24.4628C115.72 24.6802 115.698 24.9312 115.735 25.215C115.753 25.4234 115.804 25.6737 115.888 25.9672C115.972 26.2607 116.05 26.6442 116.125 27.1165C116.199 27.5897 116.26 28.1622 116.306 28.8338C116.353 29.5057 116.366 30.3289 116.348 31.3032C116.329 32.278 116.26 33.4177 116.139 34.7233C116.018 36.029 115.827 37.5428 115.567 39.2643C115.53 39.6619 115.678 39.9838 116.013 40.2297C116.348 40.4753 116.729 40.6171 117.157 40.6553C117.584 40.6931 117.988 40.6171 118.369 40.4284C118.75 40.2387 118.969 39.9078 119.024 39.435C119.08 38.5456 119.187 37.5997 119.345 36.5965C119.503 35.594 119.698 34.6005 119.931 33.6164C120.163 32.6327 120.427 31.6961 120.725 30.8063C121.022 29.917 121.352 29.132 121.715 28.4507C122.077 27.7694 122.454 27.2257 122.844 26.8188C123.234 26.4119 123.643 26.2084 124.07 26.2084C124.591 26.2084 124.995 26.4494 125.283 26.9319C125.571 27.4147 125.775 28.0348 125.896 28.791C126.017 29.5482 126.073 30.3764 126.064 31.2748C126.054 32.1736 126.017 33.0392 125.953 33.8717C125.887 34.7046 125.813 35.4471 125.729 36.0999C125.646 36.7527 125.585 37.2025 125.548 37.4481C125.548 37.8834 125.711 38.2284 126.035 38.484C126.361 38.7393 126.723 38.8909 127.123 38.9381C127.523 38.9856 127.899 38.9096 128.253 38.7109C128.606 38.5121 128.809 38.1769 128.866 37.7033C129.051 36.3411 129.307 34.9743 129.632 33.6023C129.957 32.2305 130.329 31.0008 130.748 29.9126C131.166 28.8244 131.63 27.9351 132.142 27.2444C132.652 26.5541 133.196 26.2084 133.772 26.2084C134.069 26.2084 134.298 26.4169 134.455 26.8329C134.613 27.2491 134.692 27.8166 134.692 28.5356C134.692 29.0657 134.651 29.6098 134.567 30.1679C134.483 30.726 134.386 31.3032 134.274 31.8992C134.163 32.4955 134.065 33.1054 133.981 33.7299C133.898 34.3546 133.856 35.007 133.856 35.6883C133.856 36.1615 133.902 36.7102 133.995 37.3346C134.088 37.9587 134.265 38.5507 134.525 39.1084C134.785 39.6669 135.143 40.1397 135.599 40.5275C136.054 40.9153 136.634 41.1094 137.34 41.1094C138.4 41.1094 139.339 40.8775 140.157 40.414C140.974 39.9506 141.676 39.3453 142.262 38.5978C142.292 38.5586 142.32 38.5168 142.349 38.4779C142.394 38.5884 142.434 38.7054 142.484 38.8106C142.884 39.6431 143.428 40.2862 144.116 40.7407C144.802 41.1947 145.611 41.4453 146.541 41.4929C147.47 41.5397 148.483 41.3647 149.58 40.9675C150.397 40.6647 151.108 40.2862 151.712 39.8322C152.316 39.3781 152.86 38.8247 153.343 38.1718C153.827 37.519 154.268 36.7668 154.668 35.9155C155.068 35.0636 155.471 34.0896 155.88 32.9917C155.954 32.6896 155.885 32.4199 155.671 32.1829C155.457 31.9467 155.197 31.7811 154.891 31.686Z" fill="#0D0C23"/>
<path fill-rule="evenodd" clip-rule="evenodd" d="M170.043 28.5206C169.949 29.079 169.824 29.6944 169.666 30.3656C169.508 31.0375 169.308 31.7328 169.067 32.4519C168.825 33.171 168.528 33.8192 168.175 34.396C167.821 34.9736 167.417 35.432 166.962 35.7726C166.506 36.1132 165.982 36.2551 165.387 36.1982C165.089 36.1608 164.861 35.9526 164.704 35.5738C164.545 35.1958 164.462 34.7129 164.452 34.1263C164.443 33.5401 164.494 32.8966 164.606 32.1963C164.717 31.4966 164.89 30.8103 165.122 30.1384C165.354 29.4672 165.638 28.8471 165.972 28.2793C166.306 27.7118 166.692 27.2718 167.129 26.9596C167.566 26.6474 168.045 26.5012 168.565 26.5195C169.085 26.5387 169.642 26.8033 170.238 27.3143C170.2 27.5606 170.136 27.9628 170.043 28.5206ZM179.953 30.6918C179.665 30.5406 179.368 30.5078 179.061 30.5928C178.755 30.6778 178.536 30.9666 178.406 31.4584C178.332 31.9885 178.165 32.6125 177.904 33.3316C177.644 34.0507 177.323 34.7323 176.943 35.3751C176.561 36.0185 176.125 36.5532 175.632 36.9789C175.139 37.4049 174.615 37.5989 174.057 37.5604C173.592 37.523 173.266 37.2817 173.081 36.837C172.895 36.3923 172.797 35.8346 172.789 35.1622C172.779 34.491 172.844 33.7341 172.983 32.8919C173.123 32.0501 173.29 31.2129 173.485 30.3797C173.68 29.5475 173.88 28.7477 174.085 27.9815C174.289 27.2153 174.456 26.5671 174.587 26.0374C174.736 25.5643 174.689 25.1624 174.447 24.8308C174.206 24.5002 173.904 24.2633 173.541 24.1214C173.178 23.9796 172.812 23.9417 172.439 24.008C172.068 24.0743 171.827 24.2777 171.715 24.6179C170.618 23.6529 169.564 23.1326 168.551 23.057C167.538 22.9814 166.603 23.2086 165.749 23.7383C164.894 24.268 164.137 25.0342 163.477 26.0374C162.817 27.0406 162.283 28.1331 161.874 29.3156C161.465 30.4981 161.209 31.7048 161.107 32.9344C161.005 34.1645 161.083 35.2858 161.344 36.298C161.605 37.3101 162.064 38.1383 162.724 38.7811C163.383 39.4246 164.281 39.7465 165.415 39.7465C165.916 39.7465 166.399 39.6424 166.864 39.4343C167.329 39.2258 167.756 38.9798 168.147 38.6961C168.537 38.4124 168.881 38.1142 169.178 37.802C169.475 37.4898 169.708 37.2298 169.875 37.0214C170.005 37.7027 170.219 38.2802 170.516 38.753C170.814 39.2258 171.153 39.6143 171.534 39.9164C171.914 40.2189 172.315 40.4415 172.733 40.5837C173.151 40.7255 173.555 40.7964 173.946 40.7964C174.819 40.7964 175.636 40.4936 176.399 39.888C177.16 39.283 177.844 38.5398 178.448 37.6602C179.052 36.7801 179.549 35.8532 179.939 34.8785C180.33 33.9042 180.59 33.0385 180.72 32.2813C180.85 31.9975 180.827 31.6997 180.65 31.3875C180.473 31.0753 180.241 30.8438 179.953 30.6918Z" fill="#0D0C23"/>
<path fill-rule="evenodd" clip-rule="evenodd" d="M230.136 46.3611C229.978 47.0043 229.732 47.5487 229.397 47.993C229.063 48.4378 228.645 48.6696 228.143 48.6887C227.827 48.7074 227.585 48.5371 227.418 48.1778C227.251 47.8181 227.135 47.3546 227.069 46.7871C227.004 46.2193 226.976 45.5852 226.986 44.8852C226.995 44.1852 227.023 43.4946 227.069 42.8132C227.116 42.1324 227.172 41.4979 227.237 40.9116C227.301 40.3247 227.353 39.8714 227.39 39.5495C228.022 39.6251 228.547 39.9038 228.965 40.3867C229.384 40.8692 229.704 41.4413 229.927 42.1039C230.15 42.7661 230.28 43.4805 230.317 44.2467C230.354 45.013 230.294 45.7177 230.136 46.3611ZM220.044 46.3611C219.886 47.0043 219.64 47.5487 219.305 47.993C218.971 48.4378 218.553 48.6696 218.051 48.6887C217.735 48.7074 217.493 48.5371 217.326 48.1778C217.158 47.8181 217.042 47.3546 216.977 46.7871C216.912 46.2193 216.884 45.5852 216.894 44.8852C216.903 44.1852 216.931 43.4946 216.977 42.8132C217.024 42.1324 217.079 41.4979 217.145 40.9116C217.209 40.3247 217.261 39.8714 217.298 39.5495C217.93 39.6251 218.456 39.9038 218.873 40.3867C219.291 40.8692 219.612 41.4413 219.835 42.1039C220.058 42.7661 220.188 43.4805 220.225 44.2467C220.262 45.013 220.202 45.7177 220.044 46.3611ZM209.688 30.2399C209.668 30.6936 209.626 31.0958 209.562 31.4458C209.496 31.7965 209.408 32.0183 209.297 32.113C209.092 31.9993 208.841 31.7065 208.544 31.233C208.246 30.7602 208.014 30.2251 207.847 29.6292C207.68 29.0332 207.628 28.447 207.694 27.8695C207.758 27.2926 208.052 26.8436 208.572 26.5213C208.776 26.4079 208.952 26.4504 209.101 26.6491C209.25 26.8479 209.371 27.1363 209.464 27.5148C209.557 27.8936 209.621 28.3286 209.659 28.8205C209.696 29.3127 209.705 29.7855 209.688 30.2399ZM207.22 35.9022C206.932 36.214 206.61 36.4837 206.258 36.7109C205.905 36.9381 205.542 37.1085 205.17 37.2219C204.799 37.3356 204.464 37.3637 204.167 37.3068C203.331 37.1369 202.689 36.7675 202.244 36.2C201.797 35.6325 201.513 34.9656 201.393 34.1993C201.272 33.4328 201.286 32.6142 201.435 31.7439C201.583 30.8736 201.834 30.0649 202.188 29.3174C202.541 28.5698 202.968 27.9264 203.47 27.3873C203.972 26.8479 204.519 26.5123 205.115 26.3794C204.892 27.3445 204.818 28.343 204.892 29.3739C204.966 30.4052 205.208 31.3748 205.617 32.283C205.876 32.8325 206.188 33.3334 206.551 33.7874C206.913 34.2418 207.355 34.6297 207.875 34.9512C207.726 35.2731 207.507 35.59 207.22 35.9022ZM238.068 30.5236C238.124 30.0887 238.207 29.6292 238.319 29.1467C238.43 28.6645 238.569 28.196 238.737 27.742C238.904 27.2876 239.099 26.8951 239.322 26.5642C239.545 26.2333 239.782 25.9963 240.033 25.8544C240.284 25.7126 240.54 25.7266 240.8 25.8969C241.078 26.0676 241.251 26.427 241.315 26.9754C241.38 27.5245 241.315 28.1107 241.12 28.7355C240.925 29.3598 240.577 29.9464 240.075 30.4948C239.574 31.0443 238.895 31.4033 238.04 31.5737C238.003 31.309 238.012 30.959 238.068 30.5236ZM249.303 30.5236C249.359 30.0887 249.442 29.6292 249.554 29.1467C249.665 28.6645 249.805 28.196 249.972 27.742C250.139 27.2876 250.335 26.8951 250.557 26.5642C250.781 26.2333 251.018 25.9963 251.268 25.8544C251.52 25.7126 251.775 25.7266 252.035 25.8969C252.314 26.0676 252.486 26.427 252.551 26.9754C252.616 27.5245 252.551 28.1107 252.356 28.7355C252.161 29.3598 251.812 29.9464 251.31 30.4948C250.809 31.0443 250.13 31.4033 249.275 31.5737C249.238 31.309 249.247 30.959 249.303 30.5236ZM259.744 32.184C259.53 31.9478 259.27 31.7821 258.963 31.6871C258.657 31.5927 258.364 31.5833 258.085 31.659C257.806 31.7346 257.629 31.9334 257.555 32.2549C257.406 32.8605 257.169 33.4802 256.844 34.1136C256.519 34.7481 256.12 35.3487 255.646 35.9162C255.172 36.4837 254.637 36.9857 254.043 37.4206C253.447 37.856 252.825 38.1682 252.175 38.3569C251.524 38.5657 250.985 38.5891 250.557 38.4282C250.13 38.2676 249.791 37.9932 249.54 37.6054C249.289 37.2172 249.108 36.7491 248.996 36.2C248.885 35.6516 248.82 35.0841 248.801 34.4971C249.861 34.5731 250.804 34.3794 251.631 33.9153C252.458 33.4518 253.16 32.8364 253.736 32.0702C254.312 31.3043 254.749 30.4433 255.046 29.4877C255.343 28.532 255.51 27.5814 255.548 26.6351C255.566 25.7457 255.436 24.9935 255.157 24.3784C254.879 23.7638 254.503 23.2856 254.029 22.9453C253.555 22.6043 253.011 22.4059 252.398 22.3491C251.785 22.2922 251.162 22.3779 250.53 22.6043C249.768 22.8697 249.122 23.3 248.593 23.8959C248.063 24.4922 247.621 25.1832 247.268 25.9679C246.915 26.7536 246.636 27.5997 246.431 28.5082C246.227 29.4164 246.078 30.3108 245.986 31.1905C245.896 32.0442 245.846 32.8613 245.835 33.6434C245.765 33.7993 245.69 33.9559 245.609 34.1136C245.284 34.7481 244.884 35.3487 244.41 35.9162C243.937 36.4837 243.402 36.9857 242.807 37.4206C242.212 37.856 241.59 38.1682 240.939 38.3569C240.288 38.5657 239.749 38.5891 239.322 38.4282C238.895 38.2676 238.556 37.9932 238.305 37.6054C238.054 37.2172 237.873 36.7491 237.761 36.2C237.65 35.6516 237.584 35.0841 237.566 34.4971C238.625 34.5731 239.569 34.3794 240.396 33.9153C241.222 33.4518 241.924 32.8364 242.5 32.0702C243.077 31.3043 243.513 30.4433 243.811 29.4877C244.107 28.532 244.275 27.5814 244.313 26.6351C244.331 25.7457 244.201 24.9935 243.922 24.3784C243.644 23.7638 243.267 23.2856 242.793 22.9453C242.319 22.6043 241.776 22.4059 241.162 22.3491C240.549 22.2922 239.926 22.3779 239.294 22.6043C238.532 22.8697 237.887 23.3 237.357 23.8959C236.827 24.4922 236.385 25.1832 236.032 25.9679C235.679 26.7536 235.401 27.5997 235.196 28.5082C234.992 29.4164 234.843 30.3108 234.75 31.1905C234.698 31.6867 234.662 32.1677 234.636 32.6402C234.457 32.7957 234.282 32.9524 234.095 33.1061C233.454 33.6362 232.78 34.1136 232.074 34.5396C231.367 34.9656 230.633 35.3156 229.871 35.59C229.109 35.8643 228.329 36.03 227.53 36.0866L229.258 17.2402C229.369 16.8427 229.314 16.493 229.091 16.1902C228.868 15.8873 228.579 15.6792 228.226 15.5658C227.873 15.452 227.497 15.4617 227.097 15.5939C226.698 15.7268 226.368 16.0296 226.108 16.502C225.977 17.2214 225.843 18.2052 225.704 19.454C225.564 20.7027 225.425 22.0653 225.285 23.5412C225.146 25.0172 225.006 26.5404 224.867 28.1107C224.728 29.6817 224.607 31.148 224.505 32.5102C224.5 32.5707 224.496 32.6254 224.492 32.6852C224.329 32.8256 224.171 32.9671 224.003 33.1061C223.362 33.6362 222.688 34.1136 221.982 34.5396C221.275 34.9656 220.541 35.3156 219.78 35.59C219.017 35.8643 218.236 36.03 217.437 36.0866L219.166 17.2402C219.277 16.8427 219.222 16.493 218.999 16.1902C218.775 15.8873 218.487 15.6792 218.134 15.5658C217.781 15.452 217.405 15.4617 217.005 15.5939C216.605 15.7268 216.276 16.0296 216.016 16.502C215.885 17.2214 215.751 18.2052 215.612 19.454C215.472 20.7027 215.332 22.0653 215.193 23.5412C215.053 25.0172 214.914 26.5404 214.775 28.1107C214.636 29.6817 214.515 31.148 214.412 32.5102C214.41 32.5376 214.409 32.5624 214.407 32.5898C214.114 32.7277 213.796 32.8487 213.451 32.9503C213.097 33.0546 212.698 33.1163 212.252 33.1349C212.326 32.7939 212.386 32.4155 212.433 31.9993C212.479 31.5833 212.517 31.148 212.545 30.6936C212.573 30.2399 212.581 29.7855 212.573 29.3314C212.563 28.877 212.54 28.4611 212.503 28.0822C212.41 27.2692 212.238 26.4979 211.988 25.7691C211.736 25.041 211.397 24.431 210.97 23.9384C210.542 23.4465 210.008 23.1153 209.366 22.9453C208.725 22.775 207.977 22.8316 207.123 23.1153C205.858 22.9453 204.72 23.0638 203.707 23.4703C202.694 23.8776 201.816 24.4685 201.072 25.2441C200.329 26.0204 199.72 26.9329 199.246 27.9833C198.772 29.0332 198.456 30.1121 198.298 31.2186C198.231 31.6878 198.199 32.1548 198.189 32.6207C197.901 33.2206 197.586 33.7449 197.239 34.1849C196.747 34.8094 196.235 35.3203 195.706 35.7175C195.176 36.115 194.651 36.4178 194.131 36.626C193.61 36.8345 193.145 36.9763 192.737 37.0516C192.253 37.1463 191.789 37.156 191.343 37.08C190.897 37.0047 190.487 36.7869 190.116 36.4272C189.819 36.1625 189.591 35.7365 189.433 35.15C189.275 34.5634 189.183 33.8969 189.155 33.149C189.126 32.4015 189.155 31.6208 189.238 30.8074C189.322 29.994 189.465 29.2227 189.67 28.4942C189.874 27.7657 190.134 27.113 190.45 26.5354C190.766 25.9589 191.138 25.5469 191.566 25.301C191.807 25.3392 191.957 25.4854 192.012 25.7406C192.068 25.9963 192.081 26.2992 192.054 26.6491C192.026 26.9995 191.984 27.3589 191.929 27.7276C191.872 28.0967 191.844 28.4045 191.844 28.6501C191.938 29.1611 192.119 29.5586 192.388 29.8424C192.658 30.1261 192.96 30.2921 193.294 30.3389C193.629 30.3864 193.958 30.3062 194.284 30.0977C194.609 29.8899 194.874 29.5586 195.079 29.1042C195.097 29.1233 195.125 29.1326 195.162 29.1326L195.553 25.5282C195.664 25.036 195.589 24.601 195.329 24.2226C195.069 23.8441 194.726 23.6262 194.298 23.5697C193.759 22.775 193.029 22.3541 192.109 22.3066C191.189 22.2594 190.246 22.5669 189.28 23.2291C188.685 23.6648 188.16 24.265 187.705 25.0313C187.249 25.7979 186.878 26.6491 186.589 27.5857C186.301 28.5223 186.097 29.5114 185.976 30.5521C185.855 31.5927 185.832 32.6053 185.906 33.5886C185.98 34.5731 186.153 35.5003 186.422 36.3703C186.691 37.2409 187.068 37.9694 187.552 38.5556C187.96 39.0666 188.424 39.4407 188.945 39.6773C189.465 39.9139 190.009 40.06 190.576 40.1169C191.143 40.1735 191.705 40.1497 192.263 40.046C192.82 39.9423 193.35 39.7958 193.852 39.606C194.502 39.3604 195.171 39.0479 195.859 38.6694C196.547 38.2914 197.206 37.8369 197.839 37.3068C198.171 37.0282 198.491 36.7242 198.801 36.3983C198.941 36.7541 199.099 37.0984 199.288 37.4206C199.79 38.2719 200.468 38.9629 201.323 39.4926C202.178 40.0222 203.228 40.2772 204.474 40.2588C205.812 40.2397 207.048 39.8948 208.181 39.2228C209.315 38.5517 210.245 37.5622 210.97 36.2569C212.056 36.2569 213.123 36.0746 214.174 35.7128C214.165 35.8273 214.156 35.9479 214.148 36.0585C214.074 37.0613 214.036 37.7422 214.036 38.1019C214.018 38.7263 213.976 39.4972 213.911 40.4147C213.845 41.3326 213.804 42.2976 213.786 43.3098C213.767 44.322 213.804 45.3439 213.897 46.3756C213.99 47.4065 214.185 48.3434 214.482 49.1856C214.779 50.0271 215.202 50.7415 215.751 51.3285C216.299 51.9147 217.019 52.2651 217.912 52.3785C218.859 52.5106 219.677 52.3403 220.364 51.8675C221.052 51.3944 221.61 50.7466 222.038 49.9235C222.465 49.0999 222.767 48.1493 222.943 47.0709C223.12 45.9924 223.171 44.9089 223.097 43.8207C223.022 42.7326 222.827 41.7064 222.511 40.7417C222.195 39.7763 221.758 38.9816 221.201 38.3569C221.536 38.2629 221.935 38.0832 222.4 37.8178C222.864 37.5532 223.343 37.255 223.836 36.9237C223.957 36.8424 224.076 36.7567 224.197 36.6731C224.151 37.3436 224.128 37.8218 224.128 38.1019C224.11 38.7263 224.068 39.4972 224.003 40.4147C223.938 41.3326 223.896 42.2976 223.878 43.3098C223.859 44.322 223.896 45.3439 223.989 46.3756C224.082 47.4065 224.277 48.3434 224.574 49.1856C224.872 50.0271 225.294 50.7415 225.843 51.3285C226.391 51.9147 227.111 52.2651 228.004 52.3785C228.951 52.5106 229.769 52.3403 230.457 51.8675C231.144 51.3944 231.702 50.7466 232.13 49.9235C232.557 49.0999 232.859 48.1493 233.036 47.0709C233.212 45.9924 233.263 44.9089 233.189 43.8207C233.114 42.7326 232.919 41.7064 232.604 40.7417C232.287 39.7763 231.851 38.9816 231.293 38.3569C231.628 38.2629 232.027 38.0832 232.492 37.8178C232.957 37.5532 233.435 37.255 233.928 36.9237C234.184 36.7516 234.438 36.5741 234.692 36.3915C234.788 37.317 234.993 38.1286 235.322 38.8113C235.721 39.6442 236.264 40.2873 236.952 40.7417C237.64 41.1954 238.448 41.4464 239.378 41.4935C240.308 41.5404 241.32 41.3657 242.417 40.9682C243.234 40.6657 243.945 40.2873 244.55 39.8332C245.153 39.3788 245.697 38.8253 246.181 38.1729C246.209 38.135 246.235 38.094 246.262 38.0558C246.348 38.3209 246.444 38.5754 246.557 38.8113C246.957 39.6442 247.5 40.2873 248.188 40.7417C248.875 41.1954 249.684 41.4464 250.613 41.4935C251.543 41.5404 252.555 41.3657 253.652 40.9682C254.47 40.6657 255.181 40.2873 255.785 39.8332C256.389 39.3788 256.932 38.8253 257.416 38.1729C257.899 37.5197 258.34 36.7675 258.74 35.9162C259.14 35.0646 259.543 34.0906 259.953 32.9927C260.027 32.6903 259.957 32.4205 259.744 32.184Z" fill="#0D0C23"/>
</g>
<defs>
<clipPath id="clip0_103_2">
<rect width="260" height="58.1787" fill="white"/>
</clipPath>
</defs>
</svg>
